<svg width="164" height="38" viewBox="0 0 164 38" fill="none" xmlns="http://www.w3.org/2000/svg">
<g filter="url(#filter0_dd_10_3)">
<rect x="3.1" y="2.1" width="31.8" height="31.8" rx="7.9" fill="white"/>
<rect x="3.1" y="2.1" width="31.8" height="31.8" rx="7.9" fill="url(#paint0_linear_10_3)"/>
<rect x="3.1" y="2.1" width="31.8" height="31.8" rx="7.9" stroke="#D0D5DD" stroke-width="0.2"/>
<path d="M18.3546 13.1828C22.7105 11.4504 27.4742 12.8185 29.6373 14.9133C30.106 15.3671 30.5041 15.8275 30.845 16.2852C31.0394 15.2107 31.0552 14.1405 30.8681 13.1055C30.1847 9.32649 26.6195 7.18561 23.4233 8.29149C20.2415 9.3924 19.0005 11.5321 19.0005 11.5321C19.0005 11.5321 17.7595 9.3924 14.5777 8.29149C11.3812 7.18561 7.81603 9.32672 7.1328 13.1055C6.62842 15.8944 7.58356 18.9392 9.61033 21.6298C10.0372 21.7732 10.4847 21.8809 10.9586 21.9431C13.7978 22.3163 14.8184 21.557 16.0178 21.0486C16.8142 20.7113 17.4134 21.0942 17.3843 21.3626C17.3392 21.7786 15.7693 22.4895 16.106 22.6388C17.4351 23.2285 19.0718 23.2334 20.3053 22.18C21.838 20.8712 22.4114 21.7659 22.4114 21.7659C22.4114 21.7659 21.6502 23.7076 19.3581 24.6717C17.4457 25.4761 15.4419 25.6743 13.6107 25.4683C15.19 26.5846 17.0035 27.5204 19.0005 28.1883C24.7099 26.2784 28.9276 22.1871 30.4145 17.9096C29.4072 16.9157 28.1716 16.2996 26.6988 16.0763C23.8674 15.6471 22.8322 16.3863 21.6228 16.8708C20.8198 17.1926 20.2285 16.7978 20.263 16.5299C20.3161 16.1148 21.8999 15.4351 21.5661 15.279C20.249 14.6633 18.6125 14.626 17.3585 15.6549C15.8003 16.9332 15.2446 16.0274 15.2446 16.0274C15.2446 16.0274 16.0438 14.1015 18.3546 13.1828ZM17.2709 18.5052H18.3709V17.4052H19.6296V18.5052H20.7296V19.7639H19.6296V20.8639H18.3709V19.7639H17.2709V18.5052Z" fill="url(#paint1_linear_10_3)"/>
<path d="M17.2709 18.5052H18.3709V17.4052H19.6296V18.5052H20.7296V19.7639H19.6379C21.2597 20.5834 24.2383 21.8027 27.8177 22.3451C28.9956 20.9517 29.8813 19.4428 30.4143 17.9096C29.4069 16.9157 28.1714 16.2996 26.6986 16.0763C23.8672 15.647 22.8319 16.3863 21.6226 16.8708C20.8196 17.1926 20.2282 16.7978 20.2627 16.5299C20.3159 16.1148 21.8997 15.4351 21.5659 15.279C20.2488 14.6633 18.6123 14.626 17.3583 15.6548C15.8 16.9332 15.2444 16.0274 15.2444 16.0274C15.2444 16.0274 16.0438 14.1013 18.3543 13.1823C22.7103 11.4499 27.474 12.818 29.637 14.9128C30.1058 15.3666 30.5038 15.8271 30.8447 16.2847C31.0392 15.2102 31.055 14.14 30.8679 13.105C30.1844 9.326 26.6192 7.18512 23.423 8.291C20.2412 9.39191 19.0002 11.5316 19.0002 11.5316C19.0002 11.5316 17.7592 9.39191 14.5774 8.291C12.752 7.65927 10.8067 8.0883 9.34621 9.27521C10.0323 10.7442 10.836 12.1168 13.1255 14.8773C14.9869 17.1222 17.2709 18.5052 17.2709 18.5052Z" fill="url(#paint2_linear_10_3)"/>
<path opacity="0.31" d="M27.2769 9.64942C24.2712 8.13932 21.169 10.489 20.185 11.7298C21.882 11.3724 23.3668 11.189 25.2457 11.5838C28.0251 12.1678 29.0653 13.1714 30.3063 14.6541C30.0871 11.9068 28.3519 10.1895 27.2769 9.64942Z" fill="url(#paint3_linear_10_3)"/>
</g>
<path d="M55.128 28.288C53.848 28.288 52.664 28.056 51.576 27.592C50.504 27.128 49.56 26.48 48.744 25.648C47.944 24.816 47.32 23.84 46.872 22.72C46.424 21.6 46.2 20.376 46.2 19.048C46.2 17.72 46.416 16.496 46.848 15.376C47.296 14.24 47.92 13.264 48.72 12.448C49.536 11.616 50.488 10.976 51.576 10.528C52.664 10.064 53.848 9.832 55.128 9.832C56.408 9.832 57.552 10.048 58.56 10.48C59.584 10.912 60.448 11.488 61.152 12.208C61.856 12.912 62.36 13.688 62.664 14.536L59.736 15.904C59.4 15.008 58.832 14.272 58.032 13.696C57.232 13.104 56.264 12.808 55.128 12.808C54.008 12.808 53.016 13.072 52.152 13.6C51.304 14.128 50.64 14.856 50.16 15.784C49.696 16.712 49.464 17.8 49.464 19.048C49.464 20.296 49.696 21.392 50.16 22.336C50.64 23.264 51.304 23.992 52.152 24.52C53.016 25.048 54.008 25.312 55.128 25.312C56.264 25.312 57.232 25.024 58.032 24.448C58.832 23.856 59.4 23.112 59.736 22.216L62.664 23.584C62.36 24.432 61.856 25.216 61.152 25.936C60.448 26.64 59.584 27.208 58.56 27.64C57.552 28.072 56.408 28.288 55.128 28.288ZM68.7756 28.288C67.8636 28.288 67.0716 28.136 66.3996 27.832C65.7276 27.528 65.2076 27.096 64.8396 26.536C64.4716 25.96 64.2876 25.296 64.2876 24.544C64.2876 23.824 64.4476 23.184 64.7676 22.624C65.0876 22.048 65.5836 21.568 66.2556 21.184C66.9276 20.8 67.7756 20.528 68.7996 20.368L73.0716 19.672V22.072L69.3996 22.696C68.7756 22.808 68.3116 23.008 68.0076 23.296C67.7036 23.584 67.5516 23.96 67.5516 24.424C67.5516 24.872 67.7196 25.232 68.0556 25.504C68.4076 25.76 68.8396 25.888 69.3516 25.888C70.0076 25.888 70.5836 25.752 71.0796 25.48C71.5916 25.192 71.9836 24.8 72.2556 24.304C72.5436 23.808 72.6876 23.264 72.6876 22.672V19.312C72.6876 18.752 72.4636 18.288 72.0156 17.92C71.5836 17.536 71.0076 17.344 70.2876 17.344C69.6156 17.344 69.0156 17.528 68.4876 17.896C67.9756 18.248 67.5996 18.72 67.3596 19.312L64.7916 18.064C65.0476 17.376 65.4476 16.784 65.9916 16.288C66.5516 15.776 67.2076 15.376 67.9596 15.088C68.7116 14.8 69.5276 14.656 70.4076 14.656C71.4796 14.656 72.4236 14.856 73.2396 15.256C74.0556 15.64 74.6876 16.184 75.1356 16.888C75.5996 17.576 75.8316 18.384 75.8316 19.312V28H72.8556V25.768L73.5276 25.72C73.1916 26.28 72.7916 26.752 72.3276 27.136C71.8636 27.504 71.3356 27.792 70.7436 28C70.1516 28.192 69.4956 28.288 68.7756 28.288ZM78.7374 28V14.944H81.6894V17.848L81.4494 17.416C81.7534 16.44 82.2254 15.76 82.8654 15.376C83.5214 14.992 84.3054 14.8 85.2174 14.8H85.9854V17.584H84.8574C83.9614 17.584 83.2414 17.864 82.6974 18.424C82.1534 18.968 81.8814 19.736 81.8814 20.728V28H78.7374ZM93.906 28.288C92.562 28.288 91.386 27.984 90.378 27.376C89.37 26.768 88.586 25.944 88.026 24.904C87.466 23.864 87.186 22.712 87.186 21.448C87.186 20.136 87.466 18.976 88.026 17.968C88.602 16.944 89.378 16.136 90.354 15.544C91.346 14.952 92.45 14.656 93.666 14.656C94.69 14.656 95.586 14.824 96.354 15.16C97.138 15.496 97.802 15.96 98.346 16.552C98.89 17.144 99.306 17.824 99.594 18.592C99.882 19.344 100.026 20.16 100.026 21.04C100.026 21.264 100.01 21.496 99.978 21.736C99.962 21.976 99.922 22.184 99.858 22.36H89.778V19.96H98.082L96.594 21.088C96.738 20.352 96.698 19.696 96.474 19.12C96.266 18.544 95.914 18.088 95.418 17.752C94.938 17.416 94.354 17.248 93.666 17.248C93.01 17.248 92.426 17.416 91.914 17.752C91.402 18.072 91.01 18.552 90.738 19.192C90.482 19.816 90.386 20.576 90.45 21.472C90.386 22.272 90.49 22.984 90.762 23.608C91.05 24.216 91.466 24.688 92.01 25.024C92.57 25.36 93.21 25.528 93.93 25.528C94.65 25.528 95.258 25.376 95.754 25.072C96.266 24.768 96.666 24.36 96.954 23.848L99.498 25.096C99.242 25.72 98.842 26.272 98.298 26.752C97.754 27.232 97.106 27.608 96.354 27.88C95.618 28.152 94.802 28.288 93.906 28.288ZM109.057 28.288C107.921 28.288 106.865 28.08 105.889 27.664C104.929 27.248 104.097 26.672 103.393 25.936C102.705 25.184 102.201 24.312 101.881 23.32L104.593 22.144C105.025 23.168 105.649 23.976 106.465 24.568C107.281 25.144 108.201 25.432 109.225 25.432C109.801 25.432 110.297 25.344 110.713 25.168C111.145 24.976 111.473 24.72 111.697 24.4C111.937 24.08 112.057 23.696 112.057 23.248C112.057 22.72 111.897 22.288 111.577 21.952C111.273 21.6 110.809 21.328 110.185 21.136L106.753 20.032C105.361 19.6 104.313 18.952 103.609 18.088C102.905 17.224 102.553 16.208 102.553 15.04C102.553 14.016 102.801 13.112 103.297 12.328C103.809 11.544 104.513 10.936 105.409 10.504C106.321 10.056 107.361 9.832 108.529 9.832C109.601 9.832 110.585 10.024 111.481 10.408C112.377 10.776 113.145 11.296 113.785 11.968C114.441 12.624 114.929 13.4 115.249 14.296L112.561 15.496C112.209 14.6 111.681 13.912 110.977 13.432C110.273 12.936 109.457 12.688 108.529 12.688C107.985 12.688 107.505 12.784 107.089 12.976C106.673 13.152 106.345 13.408 106.105 13.744C105.881 14.064 105.769 14.448 105.769 14.896C105.769 15.392 105.929 15.832 106.249 16.216C106.569 16.584 107.057 16.872 107.713 17.08L111.001 18.112C112.425 18.576 113.489 19.216 114.193 20.032C114.913 20.848 115.273 21.856 115.273 23.056C115.273 24.08 115.009 24.984 114.481 25.768C113.953 26.552 113.225 27.168 112.297 27.616C111.369 28.064 110.289 28.288 109.057 28.288ZM119.532 33.28C119.18 33.28 118.836 33.248 118.5 33.184C118.164 33.136 117.86 33.04 117.588 32.896V30.28C117.796 30.328 118.044 30.376 118.332 30.424C118.636 30.472 118.916 30.496 119.172 30.496C119.892 30.496 120.412 30.328 120.732 29.992C121.068 29.672 121.364 29.24 121.62 28.696L122.484 26.68L122.436 29.32L116.748 14.944H120.132L124.116 25.552H122.916L126.876 14.944H130.284L124.596 29.32C124.26 30.152 123.852 30.864 123.372 31.456C122.892 32.048 122.332 32.496 121.692 32.8C121.068 33.12 120.348 33.28 119.532 33.28ZM132.011 28V14.944H134.963V17.512L134.723 17.056C135.027 16.272 135.523 15.68 136.211 15.28C136.915 14.864 137.731 14.656 138.659 14.656C139.619 14.656 140.467 14.864 141.203 15.28C141.955 15.696 142.539 16.28 142.955 17.032C143.371 17.768 143.579 18.624 143.579 19.6V28H140.435V20.344C140.435 19.768 140.323 19.272 140.099 18.856C139.875 18.44 139.563 18.12 139.163 17.896C138.779 17.656 138.323 17.536 137.795 17.536C137.283 17.536 136.827 17.656 136.427 17.896C136.027 18.12 135.715 18.44 135.491 18.856C135.267 19.272 135.155 19.768 135.155 20.344V28H132.011ZM152.525 28.288C151.229 28.288 150.061 27.992 149.021 27.4C147.997 26.792 147.189 25.976 146.597 24.952C146.005 23.912 145.709 22.744 145.709 21.448C145.709 20.152 146.005 18.992 146.597 17.968C147.189 16.944 147.997 16.136 149.021 15.544C150.061 14.952 151.229 14.656 152.525 14.656C153.453 14.656 154.317 14.824 155.117 15.16C155.917 15.48 156.605 15.928 157.181 16.504C157.773 17.064 158.197 17.736 158.453 18.52L155.693 19.72C155.453 19.064 155.045 18.536 154.469 18.136C153.909 17.736 153.261 17.536 152.525 17.536C151.837 17.536 151.221 17.704 150.677 18.04C150.149 18.376 149.733 18.84 149.429 19.432C149.125 20.024 148.973 20.704 148.973 21.472C148.973 22.24 149.125 22.92 149.429 23.512C149.733 24.104 150.149 24.568 150.677 24.904C151.221 25.24 151.837 25.408 152.525 25.408C153.277 25.408 153.933 25.208 154.493 24.808C155.053 24.408 155.453 23.872 155.693 23.2L158.453 24.448C158.197 25.184 157.781 25.848 157.205 26.44C156.629 27.016 155.941 27.472 155.141 27.808C154.341 28.128 153.469 28.288 152.525 28.288Z" fill="white"/>
<defs>
<filter id="filter0_dd_10_3" x="0" y="0" width="38" height="38" filterUnits="userSpaceOnUse" color-interpolation-filters="sRGB">
<feFlood flood-opacity="0" result="BackgroundImageFix"/>
<feColorMatrix in="SourceAlpha" type="matrix" values="0 0 0 0 0 0 0 0 0 0 0 0 0 0 0 0 0 0 127 0" result="hardAlpha"/>
<feOffset dy="1"/>
<feGaussianBlur stdDeviation="1"/>
<feColorMatrix type="matrix" values="0 0 0 0 0.0627451 0 0 0 0 0.0941176 0 0 0 0 0.156863 0 0 0 0.06 0"/>
<feBlend mode="normal" in2="BackgroundImageFix" result="effect1_dropShadow_10_3"/>
<feColorMatrix in="SourceAlpha" type="matrix" values="0 0 0 0 0 0 0 0 0 0 0 0 0 0 0 0 0 0 127 0" result="hardAlpha"/>
<feOffset dy="1"/>
<feGaussianBlur stdDeviation="1.5"/>
<feColorMatrix type="matrix" values="0 0 0 0 0.0627451 0 0 0 0 0.0941176 0 0 0 0 0.156863 0 0 0 0.1 0"/>
<feBlend mode="normal" in2="effect1_dropShadow_10_3" result="effect2_dropShadow_10_3"/>
<feBlend mode="normal" in="SourceGraphic" in2="effect2_dropShadow_10_3" result="shape"/>
</filter>
<linearGradient id="paint0_linear_10_3" x1="19" y1="2" x2="19" y2="34" gradientUnits="userSpaceOnUse">
<stop stop-color="white"/>
<stop offset="1" stop-color="#D0D5DD"/>
</linearGradient>
<linearGradient id="paint1_linear_10_3" x1="10.1989" y1="24.2137" x2="27.8347" y2="6.57791" gradientUnits="userSpaceOnUse">
<stop stop-color="#0076C1"/>
<stop offset="0.0737" stop-color="#0B82C6"/>
<stop offset="0.2766" stop-color="#269ED3"/>
<stop offset="0.4546" stop-color="#36AFDA"/>
<stop offset="0.587" stop-color="#3CB5DD"/>
</linearGradient>
<linearGradient id="paint2_linear_10_3" x1="10.1388" y1="24.2537" x2="27.8274" y2="6.56509" gradientUnits="userSpaceOnUse">
<stop stop-color="#00A482"/>
<stop offset="1" stop-color="#79DD83"/>
</linearGradient>
<linearGradient id="paint3_linear_10_3" x1="24.8608" y1="13.5072" x2="28.5287" y2="10.1131" gradientUnits="userSpaceOnUse">
<stop stop-color="#00A482"/>
<stop offset="1" stop-color="#79DD83"/>
</linearGradient>
</defs>
</svg>
